<?xml version="1.0" encoding="UTF-8" standalone="no" ?>
<!DOCTYPE svg PUBLIC "-//W3C//DTD SVG 1.1//EN" "http://www.w3.org/Graphics/SVG/1.1/DTD/svg11.dtd">
<svg xmlns="http://www.w3.org/2000/svg" xmlns:xlink="http://www.w3.org/1999/xlink" version="1.1" width="1080" height="1080" viewBox="0 0 1080 1080" xml:space="preserve">
<desc>Created with Fabric.js 5.2.4</desc>
<defs>
</defs>
<g transform="matrix(1 0 0 1 540 540)" id="1bd5e208-a404-4757-84d1-c81874f105a2"  >
<rect style="stroke: none; stroke-width: 1; stroke-dasharray: none; stroke-linecap: butt; stroke-dashoffset: 0; stroke-linejoin: miter; stroke-miterlimit: 4; fill: rgb(255,255,255); fill-rule: nonzero; opacity: 1; visibility: hidden;" vector-effect="non-scaling-stroke"  x="-540" y="-540" rx="0" ry="0" width="1080" height="1080" />
</g>
<g transform="matrix(1 0 0 1 540 540)" id="09f5c3a1-e361-4e16-83cb-f6ab23ed3bd9"  >
</g>
<g transform="matrix(1 0 0 1 540 540)"  >
<g style="" vector-effect="non-scaling-stroke"   >
		<g transform="matrix(1.35 0 0 1.35 0.01 72.35)"  >
<path style="stroke: none; stroke-width: 1; stroke-dasharray: none; stroke-linecap: butt; stroke-dashoffset: 0; stroke-linejoin: miter; stroke-miterlimit: 4; fill: rgb(255,255,255); fill-rule: nonzero; opacity: 1;" vector-effect="non-scaling-stroke"  transform=" translate(-296.87, -350.56)" d="M 491.362 593.727 L 102.374 593.727 C 81.509 593.727 64.53399999999999 576.752 64.53399999999999 555.887 L 64.53399999999999 107.38699999999994 L 529.202 107.38699999999994 L 529.202 555.887 C 529.202 576.752 512.228 593.727 491.362 593.727 z M 79.677 122.529 L 79.677 555.886 C 79.677 568.4019999999999 89.85900000000001 578.583 102.37400000000001 578.583 L 491.363 578.583 C 503.879 578.583 514.06 568.401 514.06 555.886 L 514.06 122.529 L 79.677 122.529 z" stroke-linecap="round" />
</g>
		<g transform="matrix(1.35 0 0 1.35 0 -338.08)"  >
<path style="stroke: none; stroke-width: 1; stroke-dasharray: none; stroke-linecap: butt; stroke-dashoffset: 0; stroke-linejoin: miter; stroke-miterlimit: 4; fill: rgb(255,255,255); fill-rule: nonzero; opacity: 1;" vector-effect="non-scaling-stroke"  transform=" translate(-296.86, -45.96)" d="M 550.8 91.913 L 42.927 91.913 L 42.927 58.382 C 42.927 37.522 59.9 20.550999999999995 80.762 20.550999999999995 L 273.61400000000003 20.550999999999995 C 276.618 8.58 286.12 0 297.506 0 C 308.905 0 318.41299999999995 8.578 321.41099999999994 20.551 L 512.97 20.551 C 533.8290000000001 20.551 550.8000000000001 37.522 550.8000000000001 58.382000000000005 L 550.8000000000001 91.913 L 550.8 91.913 z M 58.07 76.77 L 535.657 76.77 L 535.657 58.382 C 535.657 45.872 525.479 35.694 512.969 35.694 L 307.39900000000006 35.694 L 307.25100000000003 28.274 C 307.10600000000005 21.034 302.735 15.143 297.50600000000003 15.143 C 292.28700000000003 15.143 287.92 21.036 287.77000000000004 28.279 L 287.61600000000004 35.694 L 80.762 35.694 C 68.25 35.694 58.07 45.871 58.07 58.382000000000005 L 58.07 76.77 z" stroke-linecap="round" />
</g>
		<g transform="matrix(1.35 0 0 1.35 -205.13 80.6)"  >
<path style="stroke: none; stroke-width: 1; stroke-dasharray: none; stroke-linecap: butt; stroke-dashoffset: 0; stroke-linejoin: miter; stroke-miterlimit: 4; fill: rgb(255,255,255); fill-rule: nonzero; opacity: 1;" vector-effect="non-scaling-stroke"  transform=" translate(-144.62, -356.68)" d="M 144.621 546.275 C 128.672 546.275 115.697 533.298 115.697 517.3489999999999 L 115.697 196.011 C 115.697 180.061 128.672 167.085 144.621 167.085 C 160.571 167.085 173.547 180.061 173.547 196.011 L 173.547 517.35 C 173.547 533.299 160.571 546.275 144.621 546.275 z M 144.621 182.228 C 137.02200000000002 182.228 130.84 188.411 130.84 196.011 L 130.84 517.35 C 130.84 524.95 137.023 531.133 144.621 531.133 C 152.222 531.133 158.404 524.9490000000001 158.404 517.35 L 158.404 196.011 C 158.404 188.411 152.222 182.228 144.621 182.228 z" stroke-linecap="round" />
</g>
		<g transform="matrix(1.35 0 0 1.35 -72.45 80.6)"  >
<path style="stroke: none; stroke-width: 1; stroke-dasharray: none; stroke-linecap: butt; stroke-dashoffset: 0; stroke-linejoin: miter; stroke-miterlimit: 4; fill: rgb(255,255,255); fill-rule: nonzero; opacity: 1;" vector-effect="non-scaling-stroke"  transform=" translate(-243.09, -356.68)" d="M 243.094 546.275 C 227.144 546.275 214.16899999999998 533.298 214.16899999999998 517.3489999999999 L 214.16899999999998 196.011 C 214.16899999999998 180.061 227.14499999999998 167.085 243.094 167.085 C 259.043 167.085 272.019 180.061 272.019 196.011 L 272.019 517.35 C 272.019 533.299 259.043 546.275 243.094 546.275 z M 243.094 182.228 C 235.494 182.228 229.31199999999998 188.411 229.31199999999998 196.011 L 229.31199999999998 517.35 C 229.31199999999998 524.95 235.49499999999998 531.133 243.094 531.133 C 250.693 531.133 256.876 524.9490000000001 256.876 517.35 L 256.876 196.011 C 256.876 188.411 250.694 182.228 243.094 182.228 z" stroke-linecap="round" />
</g>
		<g transform="matrix(1.35 0 0 1.35 60.23 80.6)"  >
<path style="stroke: none; stroke-width: 1; stroke-dasharray: none; stroke-linecap: butt; stroke-dashoffset: 0; stroke-linejoin: miter; stroke-miterlimit: 4; fill: rgb(255,255,255); fill-rule: nonzero; opacity: 1;" vector-effect="non-scaling-stroke"  transform=" translate(-341.56, -356.68)" d="M 341.565 546.275 C 325.616 546.275 312.639 533.298 312.639 517.3489999999999 L 312.639 196.011 C 312.639 180.061 325.616 167.085 341.565 167.085 C 357.514 167.085 370.491 180.061 370.491 196.011 L 370.491 517.35 C 370.491 533.299 357.515 546.275 341.565 546.275 z M 341.565 182.228 C 333.965 182.228 327.782 188.411 327.782 196.011 L 327.782 517.35 C 327.782 524.95 333.966 531.133 341.565 531.133 C 349.164 531.133 355.348 524.9490000000001 355.348 517.35 L 355.348 196.011 C 355.347 188.411 349.165 182.228 341.565 182.228 z" stroke-linecap="round" />
</g>
		<g transform="matrix(1.35 0 0 1.35 192.91 80.6)"  >
<path style="stroke: none; stroke-width: 1; stroke-dasharray: none; stroke-linecap: butt; stroke-dashoffset: 0; stroke-linejoin: miter; stroke-miterlimit: 4; fill: rgb(255,255,255); fill-rule: nonzero; opacity: 1;" vector-effect="non-scaling-stroke"  transform=" translate(-440.03, -356.68)" d="M 440.038 546.275 C 424.083 546.275 411.104 533.298 411.104 517.3489999999999 L 411.104 196.011 C 411.104 180.061 424.08299999999997 167.085 440.038 167.085 C 455.987 167.085 468.962 180.061 468.962 196.011 L 468.962 517.35 C 468.962 533.299 455.987 546.275 440.038 546.275 z M 440.038 182.228 C 432.433 182.228 426.247 188.411 426.247 196.011 L 426.247 517.35 C 426.247 524.95 432.433 531.133 440.038 531.133 C 447.63800000000003 531.133 453.819 524.9490000000001 453.819 517.35 L 453.819 196.011 C 453.819 188.411 447.638 182.228 440.038 182.228 z" stroke-linecap="round" />
</g>
</g>
</g>
</svg>