<?xml version="1.0" encoding="UTF-8" standalone="no" ?>
<!DOCTYPE svg PUBLIC "-//W3C//DTD SVG 1.1//EN" "http://www.w3.org/Graphics/SVG/1.1/DTD/svg11.dtd">
<svg xmlns="http://www.w3.org/2000/svg" xmlns:xlink="http://www.w3.org/1999/xlink" version="1.1" width="1080" height="1080" viewBox="0 0 1080 1080" xml:space="preserve">
<desc>Created with Fabric.js 5.2.4</desc>
<defs>
</defs>
<g transform="matrix(1 0 0 1 540 540)" id="931eb733-db45-4b65-b85e-98721fbe570c"  >
<rect style="stroke: none; stroke-width: 1; stroke-dasharray: none; stroke-linecap: butt; stroke-dashoffset: 0; stroke-linejoin: miter; stroke-miterlimit: 4; fill: rgb(255,255,255); fill-rule: nonzero; opacity: 1; visibility: hidden;" vector-effect="non-scaling-stroke"  x="-540" y="-540" rx="0" ry="0" width="1080" height="1080" />
</g>
<g transform="matrix(1 0 0 1 540 540)" id="96a30c22-59b6-4811-aa10-96ffbd846b01"  >
</g>
<g transform="matrix(1 0 0 1 540 540)"  >
<g style="" vector-effect="non-scaling-stroke"   >
		<g transform="matrix(1.36 0 0 1.36 -32.66 33.89)"  >
<path style="stroke: none; stroke-width: 1; stroke-dasharray: none; stroke-linecap: butt; stroke-dashoffset: 0; stroke-linejoin: miter; stroke-miterlimit: 4; fill: rgb(255,255,255); fill-rule: nonzero; opacity: 1;" vector-effect="non-scaling-stroke"  transform=" translate(-270.37, -319.37)" d="M 173.344 543.443 L 76.71199999999999 468.09299999999996 L 367.4 95.302 L 464.03099999999995 170.651 L 173.344 543.443 z M 97.966 465.465 L 170.71499999999997 522.1899999999999 L 442.78 173.281 L 370.03099999999995 116.555 L 97.966 465.465 z" stroke-linecap="round" />
</g>
		<g transform="matrix(1.36 0 0 1.36 193.71 -258.08)"  >
<path style="stroke: none; stroke-width: 1; stroke-dasharray: none; stroke-linecap: butt; stroke-dashoffset: 0; stroke-linejoin: miter; stroke-miterlimit: 4; fill: rgb(255,255,255); fill-rule: nonzero; opacity: 1;" vector-effect="non-scaling-stroke"  transform=" translate(-437.9, -104.53)" d="M 474.671 157.008 L 378.041 81.659 L 401.122 52.05800000000001 L 497.75300000000004 127.40700000000001 L 474.671 157.008 z M 399.292 79.03 L 472.04099999999994 135.756 L 476.49799999999993 130.038 L 403.7509999999999 73.31200000000001 L 399.292 79.03 z" stroke-linecap="round" />
</g>
		<g transform="matrix(1.36 0 0 1.36 240.81 -322.11)"  >
<path style="stroke: none; stroke-width: 1; stroke-dasharray: none; stroke-linecap: butt; stroke-dashoffset: 0; stroke-linejoin: miter; stroke-miterlimit: 4; fill: rgb(255,255,255); fill-rule: nonzero; opacity: 1;" vector-effect="non-scaling-stroke"  transform=" translate(-472.65, -57.27)" d="M 507.796 114.537 L 411.16 39.185 L 415.99800000000005 32.980000000000004 C 424.985 21.454 441.715 0 460.293 0 C 465.719 0 470.76300000000003 1.788 475.284 5.313 L 524.967 44.054 C 529.9879999999999 47.867000000000004 533.074 53.193 533.899 59.46 C 535.533 71.895 528.576 87.879 512.629 108.328 L 507.796 114.537 z M 432.464 36.593 L 505.057 93.19800000000001 C 518.1850000000001 74.96600000000001 519.429 65.56800000000001 518.885 61.43300000000001 C 518.582 59.13300000000001 517.627 57.48800000000001 515.788 56.09700000000001 L 515.697 56.028000000000006 L 465.973 17.255000000000003 C 464.124 15.814000000000002 462.32 15.143000000000002 460.29200000000003 15.143000000000002 C 451.266 15.143 439.857 27.54 432.464 36.593 z" stroke-linecap="round" />
</g>
		<g transform="matrix(1.36 0 0 1.36 -246.56 321.59)"  >
<path style="stroke: none; stroke-width: 1; stroke-dasharray: none; stroke-linecap: butt; stroke-dashoffset: 0; stroke-linejoin: miter; stroke-miterlimit: 4; fill: rgb(255,255,255); fill-rule: nonzero; opacity: 1;" vector-effect="non-scaling-stroke"  transform=" translate(-113.02, -532.27)" d="M 76.405 590.336 C 70.422 590.336 64.764 587.674 60.884 583.029 C 57.067 578.463 55.478 572.474 56.515 566.584 L 71.202 474.19899999999996 L 169.84199999999998 551.1129999999999 L 83.73199999999999 588.9549999999999 C 81.362 589.873 78.897 590.336 76.405 590.336 z M 82.128 501.922 L 71.43299999999999 569.188 C 71.083 571.126 71.82199999999999 572.504 72.50299999999999 573.319 C 73.48299999999999 574.4929999999999 74.94199999999998 575.194 76.40399999999998 575.194 C 76.97899999999998 575.194 77.56399999999998 575.0889999999999 78.14199999999998 574.88 L 140.52599999999998 547.46 L 82.128 501.922 z" stroke-linecap="round" />
</g>
</g>
</g>
</svg>